<svg xmlns="http://www.w3.org/2000/svg" width="1000" height="410" viewBox="0 0 1000 410"><rect width="1000" height="410" fill="#f8fafc"/><text x="35" y="30" font-family="sans-serif" font-size="20" font-weight="700">HARD 16</text><text x="35" y="53" font-family="sans-serif" font-size="13" fill="#475569">merged · 4 steps · visible max 15</text><rect x="70" y="72" width="860" height="46" rx="7" fill="#fff" stroke="#cbd5e1"/><text x="500" y="103" text-anchor="middle" font-family="monospace" font-size="22" font-weight="600" fill="#0f172a">C + D − B = 14</text><rect x="70" y="134" width="860" height="46" rx="7" fill="#fff" stroke="#cbd5e1"/><text x="500" y="165" text-anchor="middle" font-family="monospace" font-size="22" font-weight="600" fill="#0f172a">4 × C = A</text><rect x="70" y="196" width="860" height="46" rx="7" fill="#fff" stroke="#cbd5e1"/><text x="500" y="227" text-anchor="middle" font-family="monospace" font-size="22" font-weight="600" fill="#0f172a">15 = D</text><rect x="70" y="258" width="860" height="46" rx="7" fill="#fff" stroke="#cbd5e1"/><text x="500" y="289" text-anchor="middle" font-family="monospace" font-size="22" font-weight="600" fill="#0f172a">5 = B</text><text x="125" y="365" font-family="monospace" font-size="22" font-weight="700">A =</text><rect x="175" y="332" width="90" height="46" rx="7" fill="#fff" stroke="#64748b"/><text x="345" y="365" font-family="monospace" font-size="22" font-weight="700">B =</text><rect x="395" y="332" width="90" height="46" rx="7" fill="#fff" stroke="#64748b"/><text x="565" y="365" font-family="monospace" font-size="22" font-weight="700">C =</text><rect x="615" y="332" width="90" height="46" rx="7" fill="#fff" stroke="#64748b"/><text x="785" y="365" font-family="monospace" font-size="22" font-weight="700">D =</text><rect x="835" y="332" width="90" height="46" rx="7" fill="#fff" stroke="#64748b"/></svg>