<svg xmlns="http://www.w3.org/2000/svg" width="1330" height="500" viewBox="0 0 1330 500"><rect width="1330" height="500" fill="#f8fafc"/><text x="20" y="30" font-family="system-ui" font-size="21" font-weight="700" fill="#0f172a">HARD sample 4</text><text x="20" y="51" font-family="system-ui" font-size="14" fill="#334155">3 symbols · 3 independent streams · score 60.9</text><g font-family="system-ui" fill="#0f172a"><svg x="20" y="65" width="150" height="150" viewBox="0 0 180 180"><rect width="180" height="180" fill="white"/><g stroke="#94a3b8" stroke-width="1"><path d="M 0 0 V 180 M 0 0 H 180"/><path d="M 36 0 V 180 M 0 36 H 180"/><path d="M 72 0 V 180 M 0 72 H 180"/><path d="M 108 0 V 180 M 0 108 H 180"/><path d="M 144 0 V 180 M 0 144 H 180"/><path d="M 180 0 V 180 M 0 180 H 180"/></g><g transform="translate(18 162) rotate(0)"><rect fill="#2563eb" stroke="#2563eb" stroke-width="2.5" x="-9" y="-9" width="18" height="18" rx="1"/></g><g transform="translate(18 126) rotate(90)"><polygon fill="none" stroke="#ec4899" stroke-width="2.5" points="0,-13 11,1 5,1 5,12 -5,12 -5,1 -11,1"/></g><g transform="translate(162 162) rotate(0)"><polygon fill="#f97316" stroke="#f97316" stroke-width="2.5" points="0,-12 11,9 -11,9"/></g></svg><text x="95" y="233" text-anchor="middle" font-size="13">Visible 1</text><svg x="205" y="65" width="150" height="150" viewBox="0 0 180 180"><rect width="180" height="180" fill="white"/><g stroke="#94a3b8" stroke-width="1"><path d="M 0 0 V 180 M 0 0 H 180"/><path d="M 36 0 V 180 M 0 36 H 180"/><path d="M 72 0 V 180 M 0 72 H 180"/><path d="M 108 0 V 180 M 0 108 H 180"/><path d="M 144 0 V 180 M 0 144 H 180"/><path d="M 180 0 V 180 M 0 180 H 180"/></g><g transform="translate(54 162) rotate(90)"><rect fill="#2563eb" stroke="#2563eb" stroke-width="2.5" x="-9" y="-9" width="18" height="18" rx="1"/></g><g transform="translate(54 126) rotate(180)"><polygon fill="none" stroke="#ec4899" stroke-width="2.5" points="0,-13 11,1 5,1 5,12 -5,12 -5,1 -11,1"/></g><g transform="translate(162 126) rotate(0)"><polygon fill="#111827" stroke="#111827" stroke-width="2.5" points="0,-12 11,9 -11,9"/></g></svg><text x="280" y="233" text-anchor="middle" font-size="13">Visible 2</text><svg x="390" y="65" width="150" height="150" viewBox="0 0 180 180"><rect width="180" height="180" fill="white"/><g stroke="#94a3b8" stroke-width="1"><path d="M 0 0 V 180 M 0 0 H 180"/><path d="M 36 0 V 180 M 0 36 H 180"/><path d="M 72 0 V 180 M 0 72 H 180"/><path d="M 108 0 V 180 M 0 108 H 180"/><path d="M 144 0 V 180 M 0 144 H 180"/><path d="M 180 0 V 180 M 0 180 H 180"/></g><g transform="translate(90 162) rotate(270)"><rect fill="#2563eb" stroke="#2563eb" stroke-width="2.5" x="-9" y="-9" width="18" height="18" rx="1"/></g><g transform="translate(54 126) rotate(270)"><polygon fill="none" stroke="#ec4899" stroke-width="2.5" points="0,-13 11,1 5,1 5,12 -5,12 -5,1 -11,1"/></g><g transform="translate(162 90) rotate(0)"><polygon fill="#ec4899" stroke="#ec4899" stroke-width="2.5" points="0,-12 11,9 -11,9"/></g></svg><text x="465" y="233" text-anchor="middle" font-size="13">Visible 3</text><svg x="575" y="65" width="150" height="150" viewBox="0 0 180 180"><rect width="180" height="180" fill="white"/><g stroke="#94a3b8" stroke-width="1"><path d="M 0 0 V 180 M 0 0 H 180"/><path d="M 36 0 V 180 M 0 36 H 180"/><path d="M 72 0 V 180 M 0 72 H 180"/><path d="M 108 0 V 180 M 0 108 H 180"/><path d="M 144 0 V 180 M 0 144 H 180"/><path d="M 180 0 V 180 M 0 180 H 180"/></g><g transform="translate(126 162) rotate(180)"><rect fill="#2563eb" stroke="#2563eb" stroke-width="2.5" x="-9" y="-9" width="18" height="18" rx="1"/></g><g transform="translate(90 126) rotate(0)"><polygon fill="none" stroke="#ec4899" stroke-width="2.5" points="0,-13 11,1 5,1 5,12 -5,12 -5,1 -11,1"/></g><g transform="translate(162 54) rotate(0)"><polygon fill="#f97316" stroke="#f97316" stroke-width="2.5" points="0,-12 11,9 -11,9"/></g></svg><text x="650" y="233" text-anchor="middle" font-size="13">Visible 4</text><svg x="760" y="65" width="150" height="150" viewBox="0 0 180 180"><rect width="180" height="180" fill="white"/><g stroke="#94a3b8" stroke-width="1"><path d="M 0 0 V 180 M 0 0 H 180"/><path d="M 36 0 V 180 M 0 36 H 180"/><path d="M 72 0 V 180 M 0 72 H 180"/><path d="M 108 0 V 180 M 0 108 H 180"/><path d="M 144 0 V 180 M 0 144 H 180"/><path d="M 180 0 V 180 M 0 180 H 180"/></g><g transform="translate(162 162) rotate(180)"><rect fill="#2563eb" stroke="#2563eb" stroke-width="2.5" x="-9" y="-9" width="18" height="18" rx="1"/></g><g transform="translate(90 54) rotate(90)"><polygon fill="none" stroke="#ec4899" stroke-width="2.5" points="0,-13 11,1 5,1 5,12 -5,12 -5,1 -11,1"/></g><g transform="translate(162 18) rotate(0)"><polygon fill="#111827" stroke="#111827" stroke-width="2.5" points="0,-12 11,9 -11,9"/></g></svg><text x="835" y="233" text-anchor="middle" font-size="13">Correct 1</text><svg x="945" y="65" width="150" height="150" viewBox="0 0 180 180"><rect width="180" height="180" fill="white"/><g stroke="#94a3b8" stroke-width="1"><path d="M 0 0 V 180 M 0 0 H 180"/><path d="M 36 0 V 180 M 0 36 H 180"/><path d="M 72 0 V 180 M 0 72 H 180"/><path d="M 108 0 V 180 M 0 108 H 180"/><path d="M 144 0 V 180 M 0 144 H 180"/><path d="M 180 0 V 180 M 0 180 H 180"/></g><g transform="translate(126 162) rotate(270)"><rect fill="#2563eb" stroke="#2563eb" stroke-width="2.5" x="-9" y="-9" width="18" height="18" rx="1"/></g><g transform="translate(54 54) rotate(180)"><polygon fill="none" stroke="#ec4899" stroke-width="2.5" points="0,-13 11,1 5,1 5,12 -5,12 -5,1 -11,1"/></g><g transform="translate(126 18) rotate(0)"><polygon fill="#ec4899" stroke="#ec4899" stroke-width="2.5" points="0,-12 11,9 -11,9"/></g></svg><text x="1020" y="233" text-anchor="middle" font-size="13">Correct 2</text><svg x="150" y="290" width="150" height="150" viewBox="0 0 180 180"><rect width="180" height="180" fill="white"/><g stroke="#94a3b8" stroke-width="1"><path d="M 0 0 V 180 M 0 0 H 180"/><path d="M 36 0 V 180 M 0 36 H 180"/><path d="M 72 0 V 180 M 0 72 H 180"/><path d="M 108 0 V 180 M 0 108 H 180"/><path d="M 144 0 V 180 M 0 144 H 180"/><path d="M 180 0 V 180 M 0 180 H 180"/></g><g transform="translate(162 162) rotate(180)"><rect fill="#2563eb" stroke="#2563eb" stroke-width="2.5" x="-9" y="-9" width="18" height="18" rx="1"/></g><g transform="translate(90 54) rotate(90)"><polygon fill="none" stroke="#ec4899" stroke-width="2.5" points="0,-13 11,1 5,1 5,12 -5,12 -5,1 -11,1"/></g><g transform="translate(162 18) rotate(0)"><polygon fill="#111827" stroke="#111827" stroke-width="2.5" points="0,-12 11,9 -11,9"/></g></svg><text x="225" y="458" text-anchor="middle" font-size="13">M1 A ✓</text><svg x="335" y="290" width="150" height="150" viewBox="0 0 180 180"><rect width="180" height="180" fill="white"/><g stroke="#94a3b8" stroke-width="1"><path d="M 0 0 V 180 M 0 0 H 180"/><path d="M 36 0 V 180 M 0 36 H 180"/><path d="M 72 0 V 180 M 0 72 H 180"/><path d="M 108 0 V 180 M 0 108 H 180"/><path d="M 144 0 V 180 M 0 144 H 180"/><path d="M 180 0 V 180 M 0 180 H 180"/></g><g transform="translate(162 162) rotate(180)"><rect fill="#2563eb" stroke="#2563eb" stroke-width="2.5" x="-9" y="-9" width="18" height="18" rx="1"/></g><g transform="translate(90 54) rotate(90)"><polygon fill="none" stroke="#ec4899" stroke-width="2.5" points="0,-13 11,1 5,1 5,12 -5,12 -5,1 -11,1"/></g><g transform="translate(126 18) rotate(0)"><polygon fill="#111827" stroke="#111827" stroke-width="2.5" points="0,-12 11,9 -11,9"/></g></svg><text x="410" y="458" text-anchor="middle" font-size="13">M1 B</text><svg x="520" y="290" width="150" height="150" viewBox="0 0 180 180"><rect width="180" height="180" fill="white"/><g stroke="#94a3b8" stroke-width="1"><path d="M 0 0 V 180 M 0 0 H 180"/><path d="M 36 0 V 180 M 0 36 H 180"/><path d="M 72 0 V 180 M 0 72 H 180"/><path d="M 108 0 V 180 M 0 108 H 180"/><path d="M 144 0 V 180 M 0 144 H 180"/><path d="M 180 0 V 180 M 0 180 H 180"/></g><g transform="translate(90 162) rotate(180)"><rect fill="#2563eb" stroke="#2563eb" stroke-width="2.5" x="-9" y="-9" width="18" height="18" rx="1"/></g><g transform="translate(90 54) rotate(90)"><polygon fill="none" stroke="#ec4899" stroke-width="2.5" points="0,-13 11,1 5,1 5,12 -5,12 -5,1 -11,1"/></g><g transform="translate(162 18) rotate(0)"><polygon fill="#111827" stroke="#111827" stroke-width="2.5" points="0,-12 11,9 -11,9"/></g></svg><text x="595" y="458" text-anchor="middle" font-size="13">M1 C</text><svg x="750" y="290" width="150" height="150" viewBox="0 0 180 180"><rect width="180" height="180" fill="white"/><g stroke="#94a3b8" stroke-width="1"><path d="M 0 0 V 180 M 0 0 H 180"/><path d="M 36 0 V 180 M 0 36 H 180"/><path d="M 72 0 V 180 M 0 72 H 180"/><path d="M 108 0 V 180 M 0 108 H 180"/><path d="M 144 0 V 180 M 0 144 H 180"/><path d="M 180 0 V 180 M 0 180 H 180"/></g><g transform="translate(126 162) rotate(270)"><rect fill="#2563eb" stroke="#2563eb" stroke-width="2.5" x="-9" y="-9" width="18" height="18" rx="1"/></g><g transform="translate(18 54) rotate(180)"><polygon fill="none" stroke="#ec4899" stroke-width="2.5" points="0,-13 11,1 5,1 5,12 -5,12 -5,1 -11,1"/></g><g transform="translate(126 18) rotate(0)"><polygon fill="#ec4899" stroke="#ec4899" stroke-width="2.5" points="0,-12 11,9 -11,9"/></g></svg><text x="825" y="458" text-anchor="middle" font-size="13">M2 A</text><svg x="935" y="290" width="150" height="150" viewBox="0 0 180 180"><rect width="180" height="180" fill="white"/><g stroke="#94a3b8" stroke-width="1"><path d="M 0 0 V 180 M 0 0 H 180"/><path d="M 36 0 V 180 M 0 36 H 180"/><path d="M 72 0 V 180 M 0 72 H 180"/><path d="M 108 0 V 180 M 0 108 H 180"/><path d="M 144 0 V 180 M 0 144 H 180"/><path d="M 180 0 V 180 M 0 180 H 180"/></g><g transform="translate(126 162) rotate(270)"><rect fill="#2563eb" stroke="#2563eb" stroke-width="2.5" x="-9" y="-9" width="18" height="18" rx="1"/></g><g transform="translate(54 54) rotate(180)"><polygon fill="none" stroke="#ec4899" stroke-width="2.5" points="0,-13 11,1 5,1 5,12 -5,12 -5,1 -11,1"/></g><g transform="translate(126 18) rotate(0)"><polygon fill="#f97316" stroke="#f97316" stroke-width="2.5" points="0,-12 11,9 -11,9"/></g></svg><text x="1010" y="458" text-anchor="middle" font-size="13">M2 B</text><svg x="1120" y="290" width="150" height="150" viewBox="0 0 180 180"><rect width="180" height="180" fill="white"/><g stroke="#94a3b8" stroke-width="1"><path d="M 0 0 V 180 M 0 0 H 180"/><path d="M 36 0 V 180 M 0 36 H 180"/><path d="M 72 0 V 180 M 0 72 H 180"/><path d="M 108 0 V 180 M 0 108 H 180"/><path d="M 144 0 V 180 M 0 144 H 180"/><path d="M 180 0 V 180 M 0 180 H 180"/></g><g transform="translate(126 162) rotate(270)"><rect fill="#2563eb" stroke="#2563eb" stroke-width="2.5" x="-9" y="-9" width="18" height="18" rx="1"/></g><g transform="translate(54 54) rotate(180)"><polygon fill="none" stroke="#ec4899" stroke-width="2.5" points="0,-13 11,1 5,1 5,12 -5,12 -5,1 -11,1"/></g><g transform="translate(126 18) rotate(0)"><polygon fill="#ec4899" stroke="#ec4899" stroke-width="2.5" points="0,-12 11,9 -11,9"/></g></svg><text x="1195" y="458" text-anchor="middle" font-size="13">M2 C ✓</text></g></svg>