<svg xmlns="http://www.w3.org/2000/svg" width="1000" height="410" viewBox="0 0 1000 410"><rect width="1000" height="410" fill="#f8fafc"/><text x="45" y="34" font-family="sans-serif" font-size="21" font-weight="700" fill="#0f172a">HARD sample 3</text><text x="45" y="58" font-family="sans-serif" font-size="14" fill="#475569">mixed · depth 2 · 5 estimated steps</text><rect x="90" y="78" width="820" height="48" rx="7" fill="#fff" stroke="#cbd5e1"/><text x="500" y="110" text-anchor="middle" font-family="monospace" font-size="23" font-weight="600" fill="#0f172a">D = 20 − A</text><rect x="90" y="142" width="820" height="48" rx="7" fill="#fff" stroke="#cbd5e1"/><text x="500" y="174" text-anchor="middle" font-family="monospace" font-size="23" font-weight="600" fill="#0f172a">B + C − D = 10</text><rect x="90" y="206" width="820" height="48" rx="7" fill="#fff" stroke="#cbd5e1"/><text x="500" y="238" text-anchor="middle" font-family="monospace" font-size="23" font-weight="600" fill="#0f172a">4 × A = C</text><rect x="90" y="270" width="820" height="48" rx="7" fill="#fff" stroke="#cbd5e1"/><text x="500" y="302" text-anchor="middle" font-family="monospace" font-size="23" font-weight="600" fill="#0f172a">10 − A = C</text><text x="145" y="365" font-family="monospace" font-size="22" font-weight="700" fill="#0f172a">A =</text><rect x="195" y="332" width="92" height="46" rx="7" fill="#fff" stroke="#64748b"/><text x="365" y="365" font-family="monospace" font-size="22" font-weight="700" fill="#0f172a">B =</text><rect x="415" y="332" width="92" height="46" rx="7" fill="#fff" stroke="#64748b"/><text x="585" y="365" font-family="monospace" font-size="22" font-weight="700" fill="#0f172a">C =</text><rect x="635" y="332" width="92" height="46" rx="7" fill="#fff" stroke="#64748b"/><text x="805" y="365" font-family="monospace" font-size="22" font-weight="700" fill="#0f172a">D =</text><rect x="855" y="332" width="92" height="46" rx="7" fill="#fff" stroke="#64748b"/></svg>